<svg width="24" height="24" viewBox="0 0 24 24" fill="none" xmlns="http://www.w3.org/2000/svg">
<g id="vuesax/bold/empty-wallet-add">
<g id="vuesax/bold/empty-wallet-add_2">
<g id="empty-wallet-add">
<path id="Vector" d="M8.41453 20.8202C9.03451 20.2002 9.39066 19.4086 9.483 18.5906C9.60832 17.5022 9.24556 16.3742 8.41453 15.543C7.91986 15.0483 7.31308 14.7185 6.67331 14.5668C5.45314 14.2567 4.10106 14.58 3.13811 15.543C2.47197 16.2093 2.10921 17.0602 2.06304 17.9376C2.03007 18.3136 2.06304 18.7028 2.16198 19.0788C2.31367 19.7186 2.64345 20.3255 3.13811 20.8202C4.59572 22.2781 6.95692 22.2781 8.41453 20.8202ZM7.17457 17.4956C7.55711 17.4956 7.8737 17.8122 7.8737 18.1948C7.8671 18.584 7.55711 18.8941 7.16798 18.9007L6.47545 18.8941L6.48204 19.5603C6.47545 19.9495 6.16546 20.2595 5.77632 20.2661C5.38718 20.2595 5.0772 19.9495 5.0706 19.5603L5.0772 18.8941L4.38467 18.9007C3.99553 18.8941 3.68554 18.584 3.67895 18.1948C3.68554 18.0035 3.76469 17.832 3.89 17.7067C4.01532 17.5814 4.1868 17.5022 4.37807 17.4956L5.0772 17.4956L5.0772 16.77C5.0772 16.5721 5.15634 16.4006 5.28166 16.2753C5.40697 16.1499 5.57845 16.0708 5.77632 16.0708C6.15886 16.0708 6.47544 16.3874 6.47544 16.77L6.47545 17.4956L7.17457 17.4956Z" fill="#4D5562"/>
<path id="Vector_2" d="M14.9652 4.14455V7.68952H13.5661V4.14455C13.5661 3.89267 13.3422 3.7714 13.193 3.7714C13.1464 3.7714 13.0997 3.78073 13.0531 3.79938L5.65641 6.58871C5.16206 6.77529 4.84492 7.24173 4.84492 7.77348V8.39851C3.99612 9.03287 3.4458 10.0497 3.4458 11.1972V7.77348C3.4458 6.66334 4.12671 5.67448 5.16206 5.28267L12.5681 2.48402C12.7733 2.40939 12.9878 2.37207 13.193 2.37207C14.1258 2.37207 14.9652 3.12771 14.9652 4.14455Z" fill="#4D5562"/>
<path id="Vector_3" d="M21.1697 13.987V14.9198C21.1697 15.1717 20.9738 15.377 20.7126 15.3863H19.3508C18.8565 15.3863 18.4088 15.0225 18.3715 14.5374C18.3435 14.2482 18.4554 13.9776 18.6419 13.791C18.8098 13.6138 19.043 13.5205 19.2949 13.5205H20.7033C20.9738 13.5298 21.1697 13.7351 21.1697 13.987Z" fill="#4D5562"/>
<path id="Vector_4" d="M19.2838 12.5395H20.2352C20.7483 12.5395 21.168 12.1197 21.168 11.6066V11.1961C21.168 9.26505 19.5917 7.68848 17.6609 7.68848H6.95293C6.16009 7.68848 5.43255 7.94968 4.84492 8.39747C3.99612 9.03183 3.4458 10.0487 3.4458 11.1961V12.8567C3.4458 13.2112 3.8189 13.4351 4.15469 13.3231C4.67703 13.1459 5.22735 13.0526 5.77767 13.0526C8.60389 13.0526 10.9078 15.3568 10.9078 18.1834C10.9078 18.8551 10.7306 19.5921 10.4507 20.2451C10.3015 20.581 10.5347 20.9821 10.8984 20.9821H17.6609C19.5917 20.9821 21.168 19.4055 21.168 17.4744V17.2972C21.168 16.7841 20.7483 16.3643 20.2352 16.3643H19.4238C18.5283 16.3643 17.6702 15.8139 17.437 14.9463C17.2505 14.2373 17.4743 13.547 17.9407 13.0992C18.2858 12.7447 18.7615 12.5395 19.2838 12.5395ZM14.1724 12.3529H9.50866C9.12623 12.3529 8.8091 12.0357 8.8091 11.6532C8.8091 11.2708 9.12623 10.9536 9.50866 10.9536H14.1724C14.5548 10.9536 14.872 11.2708 14.872 11.6532C14.872 12.0357 14.5548 12.3529 14.1724 12.3529Z" fill="#4D5562"/>
</g>
</g>
</g>
</svg>
