<svg width="24" height="24" viewBox="0 0 24 24" fill="none" xmlns="http://www.w3.org/2000/svg">
<g id="vuesax/bold/health">
<g id="vuesax/bold/health_2">
<g id="health">
<path id="Vector" d="M21.5832 7.94389V12.4385H17.6732C17.5582 12.4289 17.309 12.2851 17.2515 12.1797L16.2548 10.2918C15.8619 9.54431 15.1815 9.12264 14.4532 9.16098C13.7248 9.19931 13.1019 9.68806 12.7857 10.4835L11.4632 13.7993L11.2715 13.301C10.8019 12.0839 9.46025 11.1639 8.13775 11.1639L2.4165 11.1926V7.94389C2.4165 4.45556 4.49609 2.37598 7.98442 2.37598H16.0153C19.5036 2.37598 21.5832 4.45556 21.5832 7.94389Z" fill="#4D5562"/>
<path id="Vector_2" d="M21.5832 15.9744V13.8757H17.6732C17.0311 13.8757 16.274 13.4157 15.9769 12.8503L14.9803 10.9624C14.7119 10.4544 14.3286 10.4832 14.1178 11.0103L11.9136 16.5782C11.674 17.2011 11.2715 17.2011 11.0223 16.5782L9.92984 13.8182C9.67109 13.1474 8.86609 12.6011 8.14734 12.6011L2.4165 12.6299V15.9744C2.4165 19.4053 4.429 21.4753 7.81192 21.5328C7.91734 21.5424 8.03234 21.5424 8.13775 21.5424H15.8044C15.9482 21.5424 16.0919 21.5424 16.2261 21.5328C19.5898 21.4561 21.5832 19.3957 21.5832 15.9744Z" fill="#4D5562"/>
<path id="Vector_3" d="M2.41645 12.6299V15.802C2.39728 15.4953 2.3877 15.1695 2.3877 14.834V12.6299H2.41645Z" fill="#292D32"/>
</g>
</g>
</g>
</svg>
