<svg width="24" height="24" viewBox="0 0 24 24" fill="none" xmlns="http://www.w3.org/2000/svg">
<g id="vuesax/bold/notification-status">
<g id="vuesax/bold/notification-status_2">
<g id="notification-status">
<path id="Vector" d="M18.7083 8.12598C20.2961 8.12598 21.5833 6.8388 21.5833 5.25098C21.5833 3.66316 20.2961 2.37598 18.7083 2.37598C17.1204 2.37598 15.8333 3.66316 15.8333 5.25098C15.8333 6.8388 17.1204 8.12598 18.7083 8.12598Z" fill="#4D5562"/>
<path id="Vector_2" d="M19.4751 9.48648C19.4559 9.48648 19.4367 9.49607 19.4176 9.49607C19.3217 9.51523 19.2259 9.52482 19.1205 9.54398C18.718 9.58232 18.2867 9.56315 17.8459 9.4769C17.7309 9.44815 17.6351 9.42898 17.5297 9.39065C17.2134 9.31398 16.9163 9.1894 16.6384 9.02648C16.5234 8.96898 16.4084 8.89232 16.303 8.82523C15.843 8.50898 15.4501 8.11607 15.1338 7.65607C15.0667 7.55065 14.9901 7.43565 14.9326 7.32065C14.7697 7.04273 14.6451 6.74565 14.5684 6.4294C14.5301 6.32398 14.5109 6.22815 14.4822 6.11315C14.3959 5.67232 14.3767 5.24107 14.4151 4.83857C14.4342 4.73315 14.4438 4.63732 14.463 4.54148C14.463 4.52232 14.4726 4.50315 14.4726 4.48398C14.5876 3.88982 14.1467 3.33398 13.5334 3.33398H7.70675C7.57258 3.33398 7.43842 3.34357 7.31383 3.35315C7.19883 3.36273 7.09342 3.37232 6.97842 3.39148C6.86342 3.40107 6.74841 3.42023 6.643 3.4394C4.33341 3.77482 2.85758 5.24107 2.52216 7.56023C2.503 7.66565 2.48383 7.78065 2.47425 7.89565C2.45508 8.01065 2.4455 8.11607 2.43591 8.23107C2.42633 8.35565 2.41675 8.48982 2.41675 8.62398V16.2523C2.41675 16.3865 2.42633 16.5207 2.43591 16.6452C2.4455 16.7602 2.45508 16.8657 2.47425 16.9807C2.48383 17.0957 2.503 17.2107 2.52216 17.3161C2.85758 19.6352 4.33341 21.1015 6.643 21.4369C6.74841 21.4561 6.86342 21.4752 6.97842 21.4848C7.09342 21.504 7.19883 21.5136 7.31383 21.5232C7.43842 21.5327 7.57258 21.5423 7.70675 21.5423H15.3351C15.4692 21.5423 15.6034 21.5327 15.728 21.5232C15.843 21.5136 15.9484 21.504 16.0634 21.4848C16.1784 21.4752 16.2934 21.4561 16.3988 21.4369C18.7084 21.1015 20.1842 19.6352 20.5197 17.3161C20.5388 17.2107 20.558 17.0957 20.5676 16.9807C20.5868 16.8657 20.5963 16.7602 20.6059 16.6452C20.6155 16.5207 20.6251 16.3865 20.6251 16.2523V10.4257C20.6251 9.81232 20.0692 9.37148 19.4751 9.48648ZM6.96883 12.4382H11.7605C12.1534 12.4382 12.4792 12.764 12.4792 13.1569C12.4792 13.5498 12.1534 13.8757 11.7605 13.8757H6.96883C6.57591 13.8757 6.25008 13.5498 6.25008 13.1569C6.25008 12.764 6.57591 12.4382 6.96883 12.4382ZM15.5938 17.709H6.96883C6.57591 17.709 6.25008 17.3832 6.25008 16.9902C6.25008 16.5973 6.57591 16.2715 6.96883 16.2715H15.5938C15.9867 16.2715 16.3126 16.5973 16.3126 16.9902C16.3126 17.3832 15.9867 17.709 15.5938 17.709Z" fill="#4D5562"/>
</g>
</g>
</g>
</svg>
