<svg width="24" height="24" viewBox="0 0 24 24" fill="none" xmlns="http://www.w3.org/2000/svg">
<g id="vuesax/bold/people">
<g id="vuesax/bold/people_2">
<g id="people">
<path id="Vector" d="M17.2995 7.90556C17.2324 7.89598 17.1653 7.89598 17.0982 7.90556C15.6128 7.85764 14.4341 6.64056 14.4341 5.14556C14.4341 3.62181 15.6703 2.37598 17.2037 2.37598C18.7274 2.37598 19.9732 3.61223 19.9732 5.14556C19.9637 6.64056 18.7849 7.85764 17.2995 7.90556Z" fill="#4D5562"/>
<path id="Vector_2" d="M20.4236 14.5469C19.3503 15.2656 17.8457 15.534 16.4561 15.3519C16.8203 14.566 17.012 13.694 17.0215 12.774C17.0215 11.8156 16.8107 10.9052 16.4082 10.1098C17.8265 9.91812 19.3311 10.1865 20.414 10.9052C21.9282 11.9019 21.9282 13.5406 20.4236 14.5469Z" fill="#4D5562"/>
<path id="Vector_3" d="M6.67149 7.90556C6.73857 7.89598 6.80566 7.89598 6.87274 7.90556C8.35816 7.85764 9.53691 6.64056 9.53691 5.14556C9.53691 3.61223 8.30066 2.37598 6.76732 2.37598C5.24357 2.37598 4.00732 3.61223 4.00732 5.14556C4.00732 6.64056 5.18607 7.85764 6.67149 7.90556Z" fill="#4D5562"/>
<path id="Vector_4" d="M6.77732 12.7732C6.77732 13.7027 6.97857 14.5844 7.34273 15.3798C5.99148 15.5236 4.58273 15.2361 3.54773 14.5557C2.03357 13.5494 2.03357 11.9107 3.54773 10.9044C4.57315 10.2144 6.02023 9.93649 7.38107 10.0898C6.98815 10.8948 6.77732 11.8052 6.77732 12.7732Z" fill="#4D5562"/>
<path id="Vector_5" d="M12.1151 15.6677C12.0384 15.6582 11.9522 15.6582 11.8659 15.6677C10.1026 15.6102 8.69385 14.1632 8.69385 12.3807C8.70343 10.5598 10.1697 9.08398 12.0001 9.08398C13.8209 9.08398 15.2968 10.5598 15.2968 12.3807C15.2872 14.1632 13.888 15.6102 12.1151 15.6677Z" fill="#4D5562"/>
<path id="Vector_6" d="M9.00035 17.6518C7.55327 18.6197 7.55327 20.2105 9.00035 21.1688C10.6487 22.2709 13.3512 22.2709 14.9995 21.1688C16.4466 20.2009 16.4466 18.6101 14.9995 17.6518C13.3608 16.5497 10.6583 16.5497 9.00035 17.6518Z" fill="#4D5562"/>
</g>
</g>
</g>
</svg>
