<svg width="24" height="24" viewBox="0 0 24 24" fill="none" xmlns="http://www.w3.org/2000/svg">
<g id="vuesax/bold/row-vertical">
<g id="vuesax/bold/row-vertical_2">
<g id="row-vertical">
<path id="Vector" d="M19.5707 13.3965H4.429C2.9915 13.3965 2.4165 14.0098 2.4165 15.5336V19.4052C2.4165 20.929 2.9915 21.5423 4.429 21.5423H19.5707C21.0082 21.5423 21.5832 20.929 21.5832 19.4052V15.5336C21.5832 14.0098 21.0082 13.3965 19.5707 13.3965Z" fill="#4D5562"/>
<path id="Vector_2" d="M19.5707 2.37598H4.429C2.9915 2.37598 2.4165 2.98931 2.4165 4.51306V8.38473C2.4165 9.90848 2.9915 10.5218 4.429 10.5218H19.5707C21.0082 10.5218 21.5832 9.90848 21.5832 8.38473V4.51306C21.5832 2.98931 21.0082 2.37598 19.5707 2.37598Z" fill="#4D5562"/>
</g>
</g>
</g>
</svg>
