<svg width="24" height="24" viewBox="0 0 24 24" fill="none" xmlns="http://www.w3.org/2000/svg">
<g id="vuesax/bold/row-vertical">
<g id="vuesax/bold/row-vertical_2">
<g id="row-vertical">
<path id="Vector" d="M19.5707 13.6875H4.429C2.9915 13.6875 2.4165 14.3008 2.4165 15.8246V19.6963C2.4165 21.22 2.9915 21.8333 4.429 21.8333H19.5707C21.0082 21.8333 21.5832 21.22 21.5832 19.6963V15.8246C21.5832 14.3008 21.0082 13.6875 19.5707 13.6875Z" fill="#292D32"/>
<path id="Vector_2" d="M19.5707 2.66699H4.429C2.9915 2.66699 2.4165 3.28033 2.4165 4.80408V8.67574C2.4165 10.1995 2.9915 10.8128 4.429 10.8128H19.5707C21.0082 10.8128 21.5832 10.1995 21.5832 8.67574V4.80408C21.5832 3.28033 21.0082 2.66699 19.5707 2.66699Z" fill="#292D32"/>
</g>
</g>
</g>
</svg>
