<svg width="24" height="24" viewBox="0 0 24 24" fill="none" xmlns="http://www.w3.org/2000/svg">
<g id="vuesax/bold/security-user">
<g id="vuesax/bold/security-user_2">
<g id="security-user">
<path id="Vector" d="M18.2293 4.39771L13.4472 2.60563C12.6518 2.30854 11.3485 2.30854 10.5531 2.60563L5.77098 4.39771C4.6689 4.80979 3.76807 6.11312 3.76807 7.28229V14.4027C3.76807 15.5335 4.51557 17.019 5.42598 17.6994L9.54682 20.7756C10.8981 21.7915 13.1214 21.7915 14.4726 20.7756L18.5935 17.6994C19.5039 17.019 20.2514 15.5335 20.2514 14.4027V7.28229C20.2322 6.11312 19.3314 4.80979 18.2293 4.39771ZM11.9331 7.19604C13.0639 7.19604 13.9839 8.11604 13.9839 9.24687C13.9839 10.3585 13.1118 11.2498 12.0097 11.2881H11.9906H11.9714C11.9522 11.2881 11.9331 11.2881 11.9139 11.2881C10.7639 11.2498 9.9014 10.3585 9.9014 9.24687C9.89182 8.11604 10.8118 7.19604 11.9331 7.19604ZM14.0989 16.1373C13.5143 16.5206 12.7572 16.7219 12.0001 16.7219C11.2431 16.7219 10.4764 16.5302 9.9014 16.1373C9.35515 15.7731 9.05807 15.2748 9.04848 14.7285C9.04848 14.1919 9.35515 13.6744 9.9014 13.3102C11.061 12.5435 12.9489 12.5435 14.1085 13.3102C14.6547 13.6744 14.9614 14.1727 14.9614 14.719C14.9518 15.2556 14.6451 15.7731 14.0989 16.1373Z" fill="#4D5562"/>
</g>
</g>
</g>
</svg>
